<svg width="125" height="261" viewBox="0 0 125 261" fill="none" xmlns="http://www.w3.org/2000/svg">
<g filter="url(#filter0_d_302_17)">
<path d="M79.2227 18.2393L79.2226 18.2392C77.8946 17.483 76.3369 16.7553 74.9313 17.1433C73.3481 17.5803 72.7393 19.1543 72.4139 20.469C72.0421 21.9707 72.0801 23.4138 72.6174 25.4842C73.122 27.4285 74.1039 30.0648 75.6749 34.0168L77.2611 33.443L75.6749 34.0168C75.7989 34.3288 75.9201 34.6343 76.0383 34.9333C75.1124 33.9522 74.2691 33.0711 73.6764 32.4716C70.5063 29.265 68.4954 27.4852 64.0156 23.9043C55.454 17.0604 49.3089 13.1629 37.4799 7.04257C35.7784 6.16222 34.6622 5.59632 33.8768 5.30914C33.4523 5.15397 33.0166 5.03749 32.5616 5.02194C32.0877 5.00575 31.7165 5.10368 31.4337 5.19914C31.3957 5.21193 31.3508 5.22534 31.3024 5.23791C31.254 5.25046 31.2083 5.26059 31.1697 5.26789C31.164 5.26897 31.1587 5.26994 31.1536 5.27084C30.9874 5.26115 30.7729 5.26466 30.5458 5.31748C30.3108 5.37215 29.5382 5.60609 29.265 6.57746C28.9856 7.57088 29.4837 8.40876 29.6528 8.65953C29.8146 8.89944 29.9918 9.08411 30.1312 9.21321C30.1423 9.2272 30.1559 9.24477 30.1721 9.26607C30.2495 9.36808 30.3422 9.50022 30.4221 9.62522L31.4126 8.92724L30.4222 9.62526C30.5868 9.88266 30.8166 10.2346 31.1499 10.5894C31.4877 10.9489 31.8556 11.2329 32.2644 11.4995C33.0128 11.9874 34.1986 12.6023 36.1648 13.6159C47.2984 19.3554 52.9929 23.0021 61.6942 29.9449L62.6591 28.2964L61.6942 29.9449C67.3662 34.4705 71.3991 38.3759 77.5931 45.3679L78.8551 44.0021L77.5931 45.3679C77.7128 45.503 77.8269 45.6319 77.9358 45.7549C79.6925 47.7395 80.1013 48.2014 80.9571 48.7146L79.2227 18.2393ZM79.2227 18.2393C82.1863 19.9272 85.9456 23.4841 89.847 27.9496C93.7977 32.4717 98.0562 38.1145 102.023 44.1833L102.023 44.1834C102.654 45.1484 103.485 46.4206 103.87 47.0106L103.87 47.0107C109.071 54.9806 111.866 59.9126 113.616 64.3775L113.616 64.3775C113.911 65.1308 114.163 65.7769 114.288 66.291C114.363 66.6033 114.416 66.957 114.397 67.3433C114.378 67.7174 114.294 68.0066 114.242 68.1755L114.242 68.1755C114.21 68.2769 114.151 68.4583 114.062 68.642C113.993 68.7837 113.78 69.2059 113.314 69.4688C112.688 69.8222 111.98 69.6984 111.441 69.3687C111.03 69.1171 110.764 68.78 110.65 68.6288C110.401 68.2973 110.171 67.8753 109.978 67.5061C109.763 67.095 109.498 66.5604 109.175 65.9024M79.2227 18.2393L109.175 65.9024M109.175 65.9024C107.913 63.3268 106.708 61.3214 103.104 55.8828L104.466 54.8764L103.104 55.8828C91.039 37.6757 85.2955 30.6385 78.3461 25.1713L78.346 25.1712C78.2149 25.0681 78.0657 24.9627 77.9049 24.8583M109.175 65.9024L77.9049 24.8583M77.9049 24.8583C78.4171 26.3349 79.1798 28.3528 80.2289 31.007L78.6393 31.5772L80.2289 31.007C81.7261 34.795 82.9192 37.9391 83.7448 40.2658C84.1567 41.4266 84.4853 42.4066 84.7158 43.1721C84.8307 43.5538 84.9284 43.9055 85.0006 44.2126C85.0631 44.4788 85.1427 44.8572 85.1537 45.2263C85.1862 46.311 84.9844 47.4889 84.2991 48.3037C83.938 48.733 83.43 49.0674 82.7845 49.1498C82.1377 49.2324 81.5042 49.0427 80.9571 48.7146L77.9049 24.8583ZM32.2962 6.11765C32.2993 6.12031 32.3024 6.12299 32.3055 6.12567C32.2997 6.12056 32.2962 6.11765 32.2954 6.11694L32.2962 6.11765ZM77.1474 22.2927C77.1475 22.2942 77.1478 22.2962 77.148 22.2986C77.147 22.2811 77.1459 22.2781 77.1474 22.2927Z" fill="#FC5C79" stroke="#FC5C79" stroke-width="4"/>
<path d="M57.4387 97.3484L57.4386 97.3485C56.0012 97.6517 54.3414 98.1605 53.3005 99.5708C52.179 101.09 52.322 102.86 52.5873 104.23C52.8884 105.784 53.4953 107.008 54.7925 108.444C56.0161 109.799 57.9285 111.424 60.8902 113.795L62.0807 112.198L60.8902 113.795C61.2332 114.07 61.5653 114.337 61.8861 114.596C60.6476 114.391 59.5192 114.216 58.7435 114.113C54.7466 113.582 52.3151 113.472 47.0653 113.57C37.0283 113.757 30.2433 114.798 17.7697 118.033C15.9816 118.497 14.797 118.815 14.0055 119.142C13.5744 119.32 13.1449 119.544 12.7423 119.876C12.3262 120.22 12.0518 120.587 11.8561 120.877C11.8296 120.916 11.7976 120.961 11.7624 121.007C11.7273 121.054 11.6936 121.096 11.6649 121.13C11.6626 121.133 11.6604 121.135 11.6583 121.138C11.5107 121.255 11.3304 121.419 11.1614 121.634C10.9627 121.886 10.4737 122.609 10.6279 123.551C10.7849 124.511 11.4707 124.877 11.7469 124.989C11.9826 125.084 12.2108 125.12 12.387 125.134C12.4006 125.138 12.417 125.143 12.4362 125.149C12.5422 125.183 12.6742 125.232 12.7931 125.285L13.4365 123.93L12.7932 125.285C13.0363 125.393 13.3789 125.54 13.8139 125.612C14.2582 125.687 14.6972 125.669 15.1607 125.605C16.0024 125.489 17.264 125.163 19.3294 124.623C31.0415 121.565 37.3213 120.635 47.4927 120.434L47.6834 118.383L47.4927 120.434C54.1199 120.303 59.118 120.821 67.2152 122.505L67.7949 120.476L67.2152 122.505C68.6117 122.795 69.4287 122.964 69.9607 123.039C70.6226 123.133 70.9973 123.104 71.4704 123.017C71.4705 123.017 71.4705 123.017 71.4705 123.017L71.3651 120.983C72.3753 120.797 72.617 119.537 71.9103 118.143C71.794 117.913 71.4343 117.504 70.8519 116.933L57.4387 97.3484ZM57.4387 97.3484C60.6562 96.6699 65.3069 97.0857 70.4321 98.201C75.6288 99.3319 81.5474 101.236 87.3967 103.734L87.3967 103.734C88.3268 104.131 89.5525 104.655 90.1207 104.898L90.1207 104.898C97.7977 108.185 102.187 110.529 105.503 113.219L105.503 113.219C106.068 113.677 106.539 114.061 106.848 114.418C107.034 114.633 107.211 114.892 107.343 115.22C107.47 115.537 107.517 115.829 107.542 116.01L107.542 116.011C107.557 116.121 107.581 116.311 107.582 116.52C107.583 116.675 107.583 117.166 107.317 117.711C106.945 118.473 106.275 118.926 105.619 119.04C105.137 119.123 104.756 119.01 104.601 118.96C104.252 118.847 103.884 118.64 103.57 118.453C103.219 118.245 102.776 117.963 102.232 117.613M57.4387 97.3484L102.232 117.613M13.6946 124.367C14.0175 124.134 14.2851 123.821 14.3994 123.685C14.4256 123.654 14.4519 123.622 14.4784 123.589L12.7463 122.7C12.4395 122.919 12.464 123.069 12.8079 123.077C12.8468 123.078 12.9038 123.087 12.973 123.104C12.9731 123.104 12.9731 123.104 12.9732 123.104C13.1651 123.15 13.451 123.249 13.7061 123.362C13.9175 123.456 14.0918 123.526 14.2896 123.564C14.1817 123.817 14.0534 123.993 13.9949 124.067C13.8545 124.245 13.7291 124.342 13.6946 124.367ZM13.6946 124.367C13.6918 124.37 13.689 124.372 13.6862 124.374L13.6864 124.373C13.6878 124.372 13.6906 124.37 13.6946 124.367ZM13.0862 121.012C13.1286 121.014 13.2805 121.024 13.4732 121.102C13.5558 121.135 13.7287 121.217 13.9075 121.377L65.1731 117.294C62.7322 116.854 59.796 116.363 58.2859 116.163C54.397 115.646 52.0572 115.538 46.8712 115.635C37.0106 115.818 30.3753 116.831 18.011 120.038C15.7292 120.629 14.6996 120.921 14.1213 121.242C14.0553 121.219 13.9904 121.197 13.9275 121.177C13.7856 121.132 13.4369 121.022 13.0862 121.012ZM13.0862 121.012C13.0828 121.012 13.0795 121.012 13.0761 121.012L13.0759 121.012C13.0777 121.012 13.0812 121.012 13.0862 121.012ZM102.232 117.613C100.1 116.243 98.2549 115.339 92.9734 113.137L93.7833 111.354L92.9734 113.137C75.2825 105.763 67.5526 103.713 59.4755 103.943L59.4754 103.943C59.3008 103.948 59.1036 103.968 58.895 104.001C59.9494 104.967 61.5006 106.272 63.6344 107.99L102.232 117.613ZM59.6477 101.929L59.652 101.878L59.6477 101.929Z" fill="#FC5C79" stroke="#FC5C79" stroke-width="4"/>
<path d="M84.4008 222.394L84.4007 222.394C83.1613 223.517 81.5978 224.65 79.9888 224.199C78.464 223.773 77.6155 222.095 76.9934 220.496C75.6343 217.001 75.8005 213.599 77.0644 202.963L78.3895 202.986L77.0644 202.963C77.235 201.528 77.3899 200.191 77.5282 198.965C76.5686 200.798 75.6473 202.524 75.0428 203.601C72.5347 208.072 70.8751 210.573 67.0884 215.618C59.8447 225.269 54.3768 230.845 43.5246 239.703C41.9797 240.964 40.9211 241.812 40.133 242.262C39.6949 242.512 39.2255 242.71 38.7138 242.76C38.2001 242.81 37.7895 242.695 37.4945 242.593C37.4457 242.576 37.3907 242.559 37.3338 242.544C37.2767 242.529 37.2238 242.518 37.1797 242.51C37.1747 242.509 37.1699 242.508 37.1653 242.507C36.9824 242.53 36.757 242.534 36.5178 242.479C36.188 242.404 35.6384 242.159 35.335 241.431C35.0294 240.696 35.1727 239.95 35.3093 239.534C35.4109 239.225 35.5464 238.969 35.6662 238.776C35.6741 238.757 35.6836 238.734 35.6945 238.706C35.7508 238.562 35.8165 238.374 35.8711 238.193L37.2281 238.6L35.8711 238.193C35.9738 237.854 36.1212 237.379 36.382 236.882C36.6553 236.362 36.9883 235.935 37.3724 235.531C38.0573 234.81 39.1723 233.899 40.9607 232.445C51.1286 224.178 56.1364 219.015 63.4578 209.282L64.6164 210.52L63.4579 209.282C68.2261 202.943 71.4464 197.516 76.1502 187.831C76.961 186.161 77.4362 185.186 77.7672 184.585C77.9429 184.267 78.1211 183.973 78.3299 183.699C78.5481 183.414 78.7493 183.217 78.8916 183.081M84.4008 222.394L79.8934 184.72M84.4008 222.394C87.1446 219.91 90.1967 214.888 93.1328 208.728C96.1182 202.465 99.1367 194.695 101.739 186.381L101.74 186.381M84.4008 222.394L101.74 186.381M78.8916 183.081L79.8934 184.72M78.8916 183.081C78.8916 183.081 78.8916 183.081 78.8916 183.081L79.8934 184.72M78.8916 183.081C79.4751 182.521 80.1869 182.213 80.9135 182.29C81.589 182.362 82.1025 182.746 82.4599 183.152C83.1586 183.945 83.5845 185.168 83.7991 186.452L82.0299 187.144C81.6713 184.999 80.7238 183.924 79.8934 184.72M104.009 158.557C103.336 162.109 102.576 164.88 100.19 172.342L101.861 172.889L100.19 172.342C92.1851 197.372 87.9643 207.075 82.1139 214.723L82.1138 214.723C81.8921 215.013 81.5859 215.325 81.2545 215.61C81.2694 215.303 81.2896 214.962 81.3157 214.583C81.4587 212.504 81.7648 209.479 82.2516 205.322L104.009 158.557ZM104.009 158.557C104.179 157.659 104.319 156.938 104.437 156.386M104.009 158.557L104.437 156.386M101.74 186.381C102.154 185.056 102.7 183.311 102.953 182.501L102.953 182.501M101.74 186.381L102.953 182.501M102.953 182.501C106.371 171.556 108.022 164.86 108.708 158.882L108.708 158.882M102.953 182.501L108.708 158.882M108.708 158.882C108.828 157.828 108.917 157.03 108.916 156.428C108.915 155.597 108.75 155.075 108.533 154.584L108.533 154.584M108.708 158.882L108.533 154.584M108.533 154.584C108.48 154.463 108.401 154.29 108.305 154.126M108.533 154.584L108.305 154.126M108.305 154.126L108.305 154.125M108.305 154.126L108.305 154.125M108.305 154.125C108.239 154.013 108.022 153.64 107.623 153.406M108.305 154.125L107.623 153.406M107.623 153.406C107.389 153.269 107.042 153.15 106.609 153.221M107.623 153.406L106.609 153.221M106.609 153.221C106.168 153.293 105.805 153.535 105.546 153.789M106.609 153.221L105.546 153.789M105.546 153.789C105.11 154.216 104.905 154.736 104.839 154.908M105.546 153.789L104.839 154.908M104.839 154.908C104.67 155.343 104.543 155.89 104.437 156.386M104.839 154.908L104.437 156.386M80.3984 218.5C80.1144 218.62 79.879 218.669 79.7265 218.627C79.6467 218.605 79.5896 218.558 79.5601 218.482C79.3358 217.908 79.3758 216.003 79.7045 212.415C79.5376 215.458 79.7477 216.76 80.2158 218.032C80.2412 218.101 80.2673 218.17 80.2941 218.239C80.3297 218.33 80.3644 218.417 80.3984 218.5Z" fill="#FC5C79" stroke="#FC5C79" stroke-width="4"/>
</g>
<defs>
<filter id="filter0_d_302_17" x="0.664612" y="2.9201" width="123.631" height="258.031" filterUnits="userSpaceOnUse" color-interpolation-filters="sRGB">
<feFlood flood-opacity="0" result="BackgroundImageFix"/>
<feColorMatrix in="SourceAlpha" type="matrix" values="0 0 0 0 0 0 0 0 0 0 0 0 0 0 0 0 0 0 127 0" result="hardAlpha"/>
<feOffset dy="8"/>
<feGaussianBlur stdDeviation="4"/>
<feComposite in2="hardAlpha" operator="out"/>
<feColorMatrix type="matrix" values="0 0 0 0 1 0 0 0 0 0.801982 0 0 0 0 0.837625 0 0 0 1 0"/>
<feBlend mode="normal" in2="BackgroundImageFix" result="effect1_dropShadow_302_17"/>
<feBlend mode="normal" in="SourceGraphic" in2="effect1_dropShadow_302_17" result="shape"/>
</filter>
</defs>
</svg>
